<svg xmlns:xlink="http://www.w3.org/1999/xlink" xmlns="http://www.w3.org/2000/svg" width="400" height="100" viewBox="0 0 400 100" fill="none">
<g clip-path="url(#clip0_149_556)">
<path d="M139.569 70.9046C127.331 70.9046 117.359 60.9559 117.359 48.7393C117.359 36.5226 127.322 26.5739 139.569 26.5739C151.815 26.5739 161.779 36.5226 161.779 48.7393C161.814 60.9559 151.815 70.9046 139.569 70.9046ZM139.569 32.5361C130.605 32.5361 123.349 39.8182 123.349 48.7304C123.349 57.6426 130.64 64.9868 139.569 64.9868C148.497 64.9868 155.859 57.7046 155.859 48.7304C155.859 39.7562 148.568 32.5361 139.569 32.5361Z" fill="#468CC8"/>
<path d="M169.91 80.6851C168.167 80.6851 166.831 79.3828 166.831 77.7173C166.831 76.6453 167.433 75.6177 168.371 75.1127V43.0961C167.433 42.5911 166.831 41.5901 166.831 40.4915C166.831 38.826 168.203 37.5238 169.91 37.5238C172.22 37.5238 173.892 39.1627 174.229 41.6964C176.6 39.0918 180.078 37.5238 183.723 37.5238C192.289 37.5238 198.978 44.9388 198.978 54.418C198.978 63.8972 192.289 70.5769 183.723 70.5769C179.98 70.5769 176.697 69.2746 174.291 66.9004V75.4139C174.326 78.5855 172.547 80.6851 169.91 80.6851ZM183.688 43.4859C177.901 43.4859 174.326 49.1911 174.326 54.5066C174.326 59.822 177.538 64.6856 183.688 64.6856C189.837 64.6856 193.05 59.4145 193.05 54.4357C193.05 49.1645 189.475 43.4859 183.688 43.4859Z" fill="#468CC8"/>
<path d="M218.401 70.9046C209.64 70.9046 202.818 63.4896 202.818 54.0104C202.818 45.9664 208.773 37.2491 218.401 37.2491C227.063 37.2491 234.116 44.7616 234.116 54.0104C234.116 55.6493 232.709 57.0136 231.036 57.0136H209.03C210.136 61.0888 213.675 64.9602 218.392 64.9602C222.002 64.9602 224.842 63.9946 226.754 62.0544C227.32 61.4875 228.125 61.1508 228.992 61.1508C230.594 61.1508 231.965 62.4531 231.965 63.9857C231.965 64.8185 231.665 65.5538 231.134 66.0853C228.16 69.2923 223.878 70.8958 218.392 70.8958L218.401 70.9046ZM227.904 51.1312C226.833 47.0561 223.258 43.1846 218.409 43.1846C214.065 43.1846 210.047 46.6574 208.977 51.1312H227.904Z" fill="#468CC8"/>
<path d="M265.811 70.6034C263.166 70.6034 261.431 68.5038 261.431 65.3943V52.1766C261.431 46.3385 258.688 43.4593 253.069 43.4593C248.424 43.4593 245.079 46.7283 245.079 51.273V65.3589C245.079 68.495 243.309 70.568 240.699 70.568C238.956 70.568 237.62 69.2657 237.62 67.6002C237.62 66.5283 238.221 65.5006 239.159 64.9956V43.1935C238.186 42.662 237.62 41.6609 237.62 40.5535C237.62 38.8526 238.991 37.4794 240.628 37.4794C242.805 37.4794 244.371 38.7463 244.911 40.8193C246.513 39.2867 249.229 37.4794 253.105 37.4794C262.201 37.4794 267.386 42.9897 267.386 52.5664V64.9868C268.324 65.4917 268.926 66.4928 268.926 67.5913C268.891 69.3277 267.519 70.5946 265.811 70.5946V70.6034Z" fill="#468CC8"/>
<path d="M326.389 70.9046C317.628 70.9046 310.806 63.4896 310.806 54.0104C310.806 45.9664 316.761 37.2491 326.389 37.2491C335.051 37.2491 342.104 44.7616 342.104 54.0104C342.104 55.6493 340.697 57.0136 339.024 57.0136H317.018C318.124 61.0888 321.663 64.9602 326.38 64.9602C329.99 64.9602 332.839 63.9946 334.742 62.0544C335.308 61.4875 336.113 61.1508 336.98 61.1508C338.582 61.1508 339.953 62.4531 339.953 63.9857C339.953 64.8185 339.653 65.5538 339.122 66.0853C336.149 69.2923 331.866 70.8958 326.38 70.8958L326.389 70.9046ZM335.883 51.1312C334.812 47.0561 331.238 43.1846 326.389 43.1846C322.044 43.1846 318.027 46.6574 316.956 51.1312H335.883Z" fill="#468CC8"/>
<path d="M374.684 70.6034C372.038 70.6034 370.304 68.5038 370.304 65.3943V52.1766C370.304 46.3385 367.561 43.4593 361.942 43.4593C357.297 43.4593 353.952 46.7283 353.952 51.273V65.3589C353.952 68.495 352.182 70.568 349.572 70.568C347.829 70.568 346.493 69.2657 346.493 67.6002C346.493 66.5282 347.094 65.5006 348.032 64.9956V43.1935C347.059 42.662 346.493 41.6609 346.493 40.5535C346.493 38.8526 347.864 37.4794 349.501 37.4794C351.678 37.4794 353.244 38.7463 353.784 40.8193C355.385 39.2867 358.102 37.4794 361.978 37.4794C371.074 37.4794 376.259 42.9897 376.259 52.5664V64.9868C377.197 65.4917 377.799 66.4928 377.799 67.5913C377.763 69.3277 376.392 70.5946 374.693 70.5946L374.684 70.6034Z" fill="#468CC8"/>
<path d="M279.412 70.6654C277.668 70.6654 276.332 69.3631 276.332 67.6976C276.332 66.6257 276.934 65.598 277.872 65.0931V32.3766C276.934 31.8716 276.332 30.8706 276.332 29.772C276.332 28.1065 277.668 26.8043 279.412 26.8043H295.33C302.418 26.8043 308.205 32.5449 308.205 39.6233C308.205 44.7616 304.895 49.5366 300.179 51.4413L307.603 64.3312L307.807 64.4021C309.275 64.4021 310.585 65.7398 310.585 67.237C310.585 69.1417 309.045 70.5414 307.037 70.5414C305.364 70.5414 303.621 69.4429 302.657 67.7331L293.897 52.3095H283.827V65.3677C283.827 68.5747 282.057 70.6743 279.412 70.6743V70.6654ZM295.33 46.4979C299.108 46.4979 302.188 43.4593 302.188 39.6853C302.188 35.9114 299.108 32.7753 295.33 32.7753H283.827V46.4979H295.33Z" fill="#468CC8"/>
<path d="M393.063 70.6034C386.541 70.6034 383.232 66.4928 383.232 58.3513V43.4593H382.498C380.825 43.4593 379.524 42.1924 379.524 40.4915C379.524 38.7906 380.763 37.5237 382.232 37.5237H383.205V34.1838C382.267 33.6789 381.666 32.6778 381.666 31.5793C381.666 29.9138 383.037 28.6115 384.745 28.6115C387.391 28.6115 389.125 30.7111 389.125 33.8206V37.5237H394.877C396.381 37.5237 397.62 38.8614 397.62 40.4915C397.62 42.1216 396.319 43.4593 394.647 43.4593H389.161V58.3513C389.161 62.9581 390.196 64.659 393.036 64.659C393.806 64.659 394.912 64.4552 396.151 64.092C396.487 64.0211 396.753 63.9946 397.018 63.9946C398.39 63.9946 399.593 64.8982 399.894 66.165C400.265 67.5382 399.797 69.2037 397.885 69.8061C396.31 70.3731 394.673 70.6034 393.072 70.6034H393.063Z" fill="#468CC8"/>
<path d="M52.1182 33.2359C51.8439 32.9967 51.375 32.9967 51.1006 33.2359L36.2881 46.3296C36.0138 46.5688 35.7838 47.0738 35.7838 47.4459V65.7752C35.7838 66.1473 36.0846 66.4485 36.4562 66.4485H46.8356C47.2073 66.4485 47.5081 66.1473 47.5081 65.7752V55.0735C47.5081 54.7014 47.809 54.4002 48.1806 54.4002H55.0117C55.3834 54.4002 55.6842 54.7014 55.6842 55.0735V65.7752C55.6842 66.1473 55.9851 66.4485 56.3567 66.4485H66.7361C67.1077 66.4485 67.4086 66.1473 67.4086 65.7752V47.4459C67.4086 47.0738 67.1697 46.5688 66.9042 46.3296L52.0917 33.2359H52.1182Z" fill="#468CC8"/>
<path fill-rule="evenodd" clip-rule="evenodd" d="M98.3075 49.634H102.458C102.582 49.6075 102.714 49.6252 102.829 49.6783C102.944 49.7226 103.042 49.8112 103.112 49.9175C103.174 50.0238 103.21 50.1479 103.21 50.2719C103.21 50.3959 103.166 50.5199 103.095 50.6262L95.8124 66.0233C95.5558 66.5725 95.131 66.5725 94.8656 66.0233L87.5655 50.6262C87.4947 50.5199 87.4505 50.3959 87.4505 50.2719C87.4416 50.1479 87.477 50.0238 87.5478 49.9175C87.6186 49.8112 87.7159 49.7315 87.831 49.6783C87.946 49.634 88.0787 49.6163 88.2026 49.634H92.0429H92.0606H92.3789C92.3167 27.1848 74.0507 8.93557 51.6137 8.93557C36.7746 8.93557 23.0947 17.0239 15.9097 30.0378C15.1133 31.473 13.317 31.9957 11.8836 31.1984C10.4501 30.4099 9.92804 28.6027 10.7244 27.1675C18.9447 12.2577 34.6156 3 51.6137 3C77.3247 3 98.2452 23.9069 98.3075 49.634Z" fill="#468CC8"/>
<path fill-rule="evenodd" clip-rule="evenodd" d="M15.016 49.8733H11.1581L11.1669 49.8555H10.8485C10.906 72.3089 29.1738 90.5629 51.6138 90.5629C66.4529 90.5629 80.1328 82.4746 87.3178 69.4606C88.1142 68.0254 89.9193 67.5028 91.3439 68.3001C92.7774 69.0885 93.2994 70.8958 92.5031 72.331C84.2739 87.2319 68.6031 96.4985 51.6138 96.4985C25.8998 96.4985 4.97744 75.5867 4.91995 49.8555H0.752129C0.628249 49.8821 0.49552 49.8644 0.380489 49.8112C0.265457 49.7669 0.168123 49.6784 0.0973344 49.572C0.0353943 49.4657 0 49.3417 0 49.2177C0 49.0937 0.0442429 48.9696 0.115032 48.8633L7.40626 33.484C7.66287 32.9347 8.0876 32.9347 8.35306 33.484L15.6531 48.881C15.7239 48.9873 15.7682 49.1114 15.7682 49.2354C15.777 49.3594 15.7416 49.4835 15.6708 49.5898C15.6 49.6961 15.5027 49.7758 15.3877 49.829C15.2726 49.8733 15.1399 49.891 15.016 49.8733Z" fill="#468CC8"/>
</g>
<defs>
<clipPath id="clip0_149_556">
<rect width="400" height="93.4985" fill="white" transform="translate(0 3)"/>
</clipPath>
</defs>
</svg>